<?xml version="1.0" encoding="UTF-8"?>
<!DOCTYPE svg PUBLIC "-//W3C//DTD SVG 1.1//EN" "http://www.w3.org/Graphics/SVG/1.1/DTD/svg11.dtd">
<!-- Creator: CorelDRAW X7 -->
<svg xmlns="http://www.w3.org/2000/svg" xml:space="preserve" width="15.748in" height="11.811in" version="1.1" style="shape-rendering:geometricPrecision; text-rendering:geometricPrecision; image-rendering:optimizeQuality; fill-rule:evenodd; clip-rule:evenodd"
viewBox="0 0 15748 11811"
 xmlns:xlink="http://www.w3.org/1999/xlink">
 <defs>
  <style type="text/css">
   <![CDATA[
    .fil0 {fill:none}
    .fil1 {fill:#5E5F60}
    .fil2 {fill:#838587}
    .fil3 {fill:#B12D30}
    .fil4 {fill:#EC3237}
   ]]>
  </style>
 </defs>
 <g id="Layer_x0020_1">
  <metadata id="CorelCorpID_0Corel-Layer"/>
  <g id="_1835838632048">
   <rect class="fil0" width="15748" height="11811"/>
   <g>
    <path class="fil1" d="M8888 8129c-75,1 -107,67 -108,155 -1,86 -6,287 4,366 7,54 41,84 76,103 56,29 148,30 211,-3 28,-14 82,-44 84,-105 3,-112 -5,-294 -4,-383 1,-65 -32,-137 -122,-134 -42,1 -88,0 -141,1zm-119 -211c-164,-1 -285,140 -287,331 -1,117 2,267 0,395 -3,195 136,331 293,332 95,1 283,-4 363,3 135,10 310,-155 308,-303 -3,-158 -3,-323 -1,-435 3,-147 -83,-308 -280,-326 -95,-9 -265,4 -396,3zm-2768 648c99,6 317,4 383,3 162,-3 209,-47 247,-126 55,-113 54,-328 -52,-437 -48,-49 -92,-93 -212,-98 -114,-4 -257,-4 -362,4 -230,17 -308,177 -298,413 1,103 10,219 8,319 -4,122 19,188 86,251 70,67 135,85 217,84 216,-3 371,-3 512,-3 128,0 136,-83 134,-118 -4,-91 -50,-111 -99,-114 -123,-7 -273,7 -414,5 -100,-1 -147,-45 -150,-183zm6 -241c99,3 253,3 329,1 29,-1 35,-20 36,-31 5,-51 6,-111 -28,-141 -17,-15 -46,-29 -82,-30 -54,-1 -148,0 -182,3 -55,4 -72,31 -72,68 0,33 -2,85 -1,130zm1519 -773l66 0c63,0 115,52 115,115l0 708 315 -393c39,-49 84,-65 138,-71 45,-4 105,0 146,2 33,1 60,16 23,62l-337 423 367 510c23,32 24,74 -59,69 -26,-2 -92,0 -171,-2 -53,-2 -88,-39 -113,-76l-309 -445 0 403c0,63 -52,114 -115,114l-66 0c-63,0 -115,-51 -115,-114l0 -1190c0,-63 52,-115 115,-115zm-532 0l67 0c63,0 114,52 114,115l0 1190c0,63 -51,114 -114,114l-67 0c-63,0 -115,-51 -115,-114l0 -1190c0,-63 52,-115 115,-115zm-1192 115l0 53c0,50 -41,90 -91,90l-312 0 0 1047c0,63 -51,114 -114,114l-67 0c-63,0 -115,-51 -115,-114l0 -1047 -332 0c-50,0 -91,-40 -91,-90l0 -53c0,-50 41,-90 91,-90l940 0c50,0 91,40 91,90zm3877 385c0,275 -1,551 -1,826 0,63 52,115 115,115l66 0c63,0 115,-52 115,-115 0,-234 0,-466 2,-700 1,-33 61,-45 93,-45 106,1 145,57 145,134 0,203 2,407 2,611 0,63 51,115 114,115l67 0c63,0 115,-52 115,-115 0,-222 -3,-443 -4,-665 0,-70 62,-94 123,-80 112,25 108,135 108,221l0 524c0,63 51,115 114,115l67 0c63,0 115,-52 115,-115 0,-211 6,-427 0,-637 -9,-334 -296,-362 -491,-328 -90,15 -150,81 -172,52 -42,-53 -88,-61 -241,-54 -112,-1 -174,54 -181,33 -3,-10 -20,-28 -44,-31 -37,-4 -85,-7 -138,0 -48,6 -89,50 -89,139z"/>
    <path class="fil1" d="M9628 9283l47 0c27,0 50,23 50,50l0 23c0,28 -23,50 -50,50l-47 0c-28,0 -51,-22 -51,-50l0 -23c0,-27 23,-50 51,-50zm4 180l30 0c36,0 66,30 66,66l0 446c0,36 -30,66 -66,66l-30 0c-36,0 -66,-30 -66,-66l0 -446c0,-36 30,-66 66,-66zm-4145 464c-33,0 -126,3 -148,1 -52,-6 -77,-32 -82,-109 -6,-86 0,-238 3,-450 1,-73 -29,-84 -82,-85 -50,-1 -85,3 -83,86 2,205 4,374 5,483 0,134 58,173 163,189 110,16 207,7 280,2 129,-9 182,-90 180,-228 -2,-105 -4,-331 -2,-478 2,-47 -33,-53 -71,-53 -43,-1 -78,-3 -81,56 -5,134 -1,380 -2,449 2,62 4,138 -80,137zm1798 116c124,-3 120,-58 185,-242 24,-67 71,-202 90,-257 12,-37 -11,-68 -49,-71 -49,-4 -77,13 -96,56 -46,98 -98,260 -140,367 -51,-132 -101,-264 -151,-397 -19,-44 -65,-41 -99,-31 -34,9 -51,35 -43,66 22,84 91,279 138,399 25,66 45,112 165,110zm1118 -481c0,191 2,331 1,405 0,50 27,74 73,76 40,2 80,-19 78,-57 6,-85 2,-207 2,-366 0,-29 47,-28 65,-30 61,-5 95,7 148,-3 23,-5 45,-54 30,-87 -10,-21 -39,-35 -92,-35 -76,-3 -107,16 -144,35 -19,11 -17,-7 -25,-21 -11,-20 -43,-13 -66,-12 -51,2 -70,21 -70,95zm806 249c14,1 35,9 36,62 1,34 -13,40 -54,41 -51,1 -154,-6 -224,4 -44,7 -61,29 -61,64 0,40 30,53 70,60 83,14 197,2 245,2 100,-1 184,-62 178,-186 -5,-116 -52,-152 -147,-162 -53,-5 -100,4 -141,-2 -50,-8 -66,-28 -62,-73 3,-35 28,-32 45,-33 78,-5 167,5 223,2 42,-3 53,-41 53,-64 -1,-32 -1,-59 -73,-60 -37,0 -164,-3 -211,-2 -117,1 -186,50 -194,158 -2,24 -1,45 0,64 6,64 58,114 171,121 62,4 91,-5 146,4zm799 57c0,51 8,80 32,109 63,79 187,83 297,62 31,-6 35,-44 35,-74 0,-16 1,-44 -35,-38 -20,3 -52,8 -96,6 -48,-2 -77,-19 -77,-79l0 -263 134 0c25,0 45,-19 45,-44l0 -31c0,-24 -20,-44 -45,-44l-134 0 -1 -145c0,-34 -22,-48 -75,-48 -19,0 -76,-2 -76,30l-1 163 -95 0c-25,0 -44,20 -44,44l0 31c0,25 19,44 44,44l94 0 -2 277zm901 176c2,63 -13,95 -54,97 -69,4 -159,0 -215,0 -24,0 -62,17 -61,61 1,39 28,61 59,62 71,2 152,-3 224,-2 119,0 195,-57 197,-175 3,-143 12,-499 8,-570 -3,-44 -45,-49 -75,-50 -46,0 -79,4 -80,44 -2,66 2,216 2,416 -61,0 -110,4 -144,-5 -44,-12 -69,-56 -69,-115 1,-59 4,-151 1,-278 -1,-43 -13,-61 -74,-63 -42,-2 -72,10 -75,47 -4,47 -4,263 0,375 3,105 93,158 187,158 66,0 120,-2 169,-2zm-3061 -224c52,3 166,2 201,1 85,-1 110,-24 130,-66 29,-59 29,-172 -27,-230 -26,-26 -49,-49 -112,-51 -60,-2 -135,-2 -190,2 -121,9 -162,93 -157,217 0,54 6,115 4,168 -2,64 10,99 46,132 37,35 70,45 113,44 114,-2 196,-2 270,-2 67,0 71,-43 71,-62 -2,-48 -27,-58 -52,-59 -65,-4 -144,3 -218,2 -53,-1 -78,-24 -79,-96zm3 -127c52,1 133,2 173,1 15,-1 18,-11 19,-17 3,-26 3,-58 -15,-74 -9,-8 -24,-15 -43,-16 -29,0 -78,1 -96,2 -29,2 -37,16 -38,36 0,17 0,45 0,68zm-1909 -140c0,143 -1,286 -1,428 0,33 33,60 72,60l41 0c39,0 42,-27 42,-60 0,-121 0,-241 1,-362 0,-32 73,-30 92,-30 66,0 106,13 106,81 1,105 1,211 1,317 0,32 12,54 51,54l42 0c39,0 71,-27 71,-60 0,-115 0,-212 -3,-327 -2,-79 -37,-169 -147,-187 -37,-7 -148,-1 -195,17 -13,5 -26,6 -39,-3 -20,-15 -45,-18 -78,-14 -30,3 -56,41 -56,86zm776 -270l47 0c28,0 51,23 51,50l0 23c0,28 -23,50 -51,50l-47 0c-27,0 -50,-22 -50,-50l0 -23c0,-27 23,-50 50,-50zm5 180l30 0c36,0 65,30 65,66l0 446c0,36 -29,66 -65,66l-30 0c-36,0 -66,-30 -66,-66l0 -446c0,-36 30,-66 66,-66z"/>
    <path class="fil2" d="M8741 5135l2 1673c23,-2 161,-69 189,-84 185,-94 335,-204 476,-344 282,-282 485,-671 530,-1110 18,-171 10,-362 10,-538 0,-182 0,-365 0,-547 0,-91 1,-182 1,-273 0,-89 4,-188 -1,-274 -107,-6 -230,-1 -339,-1 -113,0 -226,0 -339,0 -110,0 -211,-8 -306,33 -280,121 -225,504 -225,793 0,78 -5,646 2,672z"/>
    <path class="fil2" d="M7463 6808l3 -1657c6,-20 1,-919 1,-1023 0,-109 -10,-200 -52,-288 -102,-214 -291,-203 -479,-203 -113,0 -226,0 -338,0 -107,0 -235,-6 -339,1 -5,86 -1,186 -1,274l0 820c0,381 -11,644 114,981 142,383 410,708 729,912 57,36 311,180 362,183z"/>
    <path class="fil3" d="M8098 1887c8,31 3,505 3,579 0,195 0,390 0,584 -9,7 4,5 -9,0l8 16c14,-5 54,-62 67,-75 26,-28 49,-48 73,-73 22,-22 52,-46 79,-65 412,-297 892,-174 1376,-219 36,-3 244,-34 252,-33l2 -1055c-37,3 -82,13 -120,18 -348,42 -583,24 -918,41 -612,30 -757,275 -813,282z"/>
    <path class="fil4" d="M8092 3050c13,5 0,7 9,0 0,-194 0,-389 0,-584 0,-74 5,-548 -3,-579 -15,-20 -125,-94 -156,-113 -350,-215 -777,-164 -1181,-181 -86,-3 -173,-8 -257,-16 -41,-3 -82,-8 -122,-13 -40,-5 -86,-15 -124,-17l0 1054c10,-1 214,30 250,33 443,42 874,-61 1275,153 187,99 293,254 309,263z"/>
    <path class="fil1" d="M7466 5151l-3 1657c11,10 17,9 35,16 308,107 628,133 951,70 53,-10 105,-23 155,-37l108 -34c18,-7 22,-5 31,-15l-2 -1673c-1,1 -1,3 -1,3 -6,18 -13,78 -27,126 -11,39 -26,75 -43,108 -211,408 -773,474 -1070,100 -21,-27 -41,-57 -59,-92 -28,-51 -49,-109 -61,-168 -3,-18 -2,-50 -14,-61z"/>
   </g>
  </g>
 </g>
</svg>
